<svg width="66" height="24" viewBox="0 0 66 24" fill="none" xmlns="http://www.w3.org/2000/svg">
<path d="M5.8418 1.67188V23H0.700195V1.67188H5.8418ZM14.1328 10.5488V14.5039H4.37695V10.5488H14.1328ZM14.9678 1.67188V5.6416H4.37695V1.67188H14.9678ZM22.0869 7.15039V23H17.1357V7.15039H22.0869ZM16.8428 3.06348C16.8428 2.36035 17.0967 1.78418 17.6045 1.33496C18.1123 0.885742 18.7715 0.661133 19.582 0.661133C20.3926 0.661133 21.0518 0.885742 21.5596 1.33496C22.0674 1.78418 22.3213 2.36035 22.3213 3.06348C22.3213 3.7666 22.0674 4.34277 21.5596 4.79199C21.0518 5.24121 20.3926 5.46582 19.582 5.46582C18.7715 5.46582 18.1123 5.24121 17.6045 4.79199C17.0967 4.34277 16.8428 3.7666 16.8428 3.06348ZM30.3486 0.5V23H25.3975V0.5H30.3486ZM38.376 10.5049V23H33.4395V7.15039H38.0684L38.376 10.5049ZM37.7754 14.5332L36.6475 14.5625C36.6475 13.4492 36.7793 12.4238 37.043 11.4863C37.3066 10.5488 37.6973 9.7334 38.2148 9.04004C38.7324 8.34668 39.3672 7.80957 40.1191 7.42871C40.8809 7.04785 41.7598 6.85742 42.7559 6.85742C43.4492 6.85742 44.0791 6.96484 44.6455 7.17969C45.2119 7.38477 45.7002 7.71191 46.1104 8.16113C46.5205 8.60059 46.833 9.17676 47.0479 9.88965C47.2725 10.5928 47.3848 11.4375 47.3848 12.4238V23H42.4482V13.0537C42.4482 12.3799 42.3701 11.8721 42.2139 11.5303C42.0674 11.1885 41.8525 10.959 41.5693 10.8418C41.2861 10.7246 40.9395 10.666 40.5293 10.666C40.0996 10.666 39.7139 10.7637 39.3721 10.959C39.0303 11.1543 38.7373 11.4277 38.4932 11.7793C38.2588 12.1211 38.0781 12.5264 37.9512 12.9951C37.834 13.4639 37.7754 13.9766 37.7754 14.5332ZM46.8281 14.5332L45.4512 14.5625C45.4512 13.4492 45.5732 12.4238 45.8174 11.4863C46.0713 10.5488 46.4473 9.7334 46.9453 9.04004C47.4531 8.34668 48.083 7.80957 48.835 7.42871C49.5869 7.04785 50.4609 6.85742 51.457 6.85742C52.1797 6.85742 52.8438 6.96484 53.4492 7.17969C54.0547 7.39453 54.5771 7.74121 55.0166 8.21973C55.4561 8.69824 55.7979 9.33301 56.042 10.124C56.2861 10.9053 56.4082 11.8721 56.4082 13.0244V23H51.457V13.0244C51.457 12.3701 51.3789 11.877 51.2227 11.5449C51.0762 11.2031 50.8613 10.9736 50.5781 10.8564C50.2949 10.7295 49.958 10.666 49.5674 10.666C49.0986 10.666 48.6934 10.7637 48.3516 10.959C48.0098 11.1543 47.7217 11.4277 47.4873 11.7793C47.2627 12.1211 47.0967 12.5264 46.9893 12.9951C46.8818 13.4639 46.8281 13.9766 46.8281 14.5332ZM59.5576 20.6855C59.5576 19.9824 59.8115 19.3965 60.3193 18.9277C60.8271 18.4492 61.4814 18.21 62.2822 18.21C63.0928 18.21 63.7471 18.4492 64.2451 18.9277C64.7529 19.3965 65.0068 19.9824 65.0068 20.6855C65.0068 21.3887 64.7529 21.9795 64.2451 22.458C63.7471 22.9268 63.0928 23.1611 62.2822 23.1611C61.4814 23.1611 60.8271 22.9268 60.3193 22.458C59.8115 21.9795 59.5576 21.3887 59.5576 20.6855Z" fill="#5671F6"/>
</svg>
